<?xml version="1.0" encoding="UTF-8"?><svg id="Layer_2" xmlns="http://www.w3.org/2000/svg" viewBox="0 0 232.28 232.28"><defs><style>.cls-1{fill:#fff;}</style></defs><g id="Layer_1-2"><g><rect class="cls-1" width="232.28" height="232.28"/><g><path d="M209.57,211.45H22.71c-.87,0-1.57-.7-1.57-1.57V23.01c0-.63,.38-1.2,.97-1.45,.59-.24,1.26-.11,1.71,.34l45.12,45.13c.61,.61,.61,1.6,0,2.21-.61,.61-1.6,.61-2.22,0L24.27,26.79V208.32H205.79L115.02,117.55c-.61-.61-.61-1.6,0-2.21,.61-.61,1.61-.61,2.22,0l93.44,93.44c.45,.45,.58,1.12,.34,1.71-.24,.59-.81,.97-1.45,.97Z"/><path d="M134.7,180.45H53.71c-.87,0-1.57-.7-1.57-1.57V97.89c0-.63,.38-1.2,.97-1.45,.59-.24,1.26-.11,1.71,.34l13.35,13.36c.61,.61,.61,1.6,0,2.21-.61,.61-1.6,.61-2.22,0l-10.68-10.68v75.64h75.64l-21.1-21.13c-.61-.61-.61-1.6,0-2.22,.61-.61,1.6-.61,2.21,0l23.76,23.8c.45,.45,.58,1.12,.34,1.71-.24,.58-.81,.97-1.45,.97Zm-34.76-34.85c-.4,0-.8-.15-1.11-.46l-19.46-19.56c-.61-.61-.61-1.6,0-2.22,.61-.61,1.6-.61,2.21,0l19.46,19.56c.61,.61,.61,1.6,0,2.22-.3,.3-.7,.46-1.1,.46Z"/><path d="M74.48,69.19h-.03c-2.04-.03-4.03-.96-5.75-2.67-4.15-4.17-6.38-11.82-6.38-21.63,0-5.32,1.12-10.43,3.32-15.18,1.38-3,3.18-5.8,5.33-8.33,.4-.47,1.03-.66,1.62-.49,.59,.17,1.03,.67,1.12,1.27,.86,5.73,4.12,9.06,7.26,12.28,2.8,2.88,5.65,5.82,5.65,10.45,0,9.82-2.23,17.48-6.31,21.56-1.88,1.85-3.85,2.75-5.84,2.75Zm-3.71-5.02s.05,.05,.07,.06c1.2,1.19,2.44,1.8,3.65,1.82,1.16,0,2.36-.59,3.49-1.7,3.56-3.57,5.52-10.62,5.51-19.47,0-3.36-2.19-5.61-4.73-8.22-2.77-2.83-5.82-5.95-7.37-10.72-1.12,1.6-2.09,3.3-2.91,5.07-2.01,4.34-3.03,9-3.03,13.87,0,8.82,1.94,15.85,5.32,19.28Z"/><path d="M82.13,78.69h-15.36c-.86,0-1.56-.69-1.57-1.55-.01-1.97-.01-4-.01-6.04,0-1.58,.4-3.13,1.17-4.47,.48-.87,1.11-1.67,1.85-2.35,.56-.51,1.39-.55,1.99-.11,1.3,.96,2.78,1.47,4.27,1.49,1.43,0,2.9-.52,4.24-1.49,.6-.44,1.43-.4,1.98,.11,.75,.69,1.38,1.49,1.86,2.37,.75,1.32,1.16,2.87,1.16,4.45,0,2.04,0,4.07-.01,6.04,0,.86-.71,1.56-1.57,1.56Zm-13.8-3.13h12.24c0-1.47,0-2.96,0-4.46,0-1.04-.26-2.05-.76-2.92-.14-.25-.29-.49-.45-.71-1.56,.87-3.24,1.33-4.91,1.33-1.71-.02-3.38-.48-4.91-1.33-.16,.22-.32,.46-.45,.7-.5,.88-.76,1.89-.76,2.93,0,1.5,0,2.99,0,4.46Z"/><path d="M81.96,92.24h-15.02c-.85,0-1.55-.68-1.56-1.54-.04-1.87-.16-11.63-.17-13.57,0-.42,.16-.82,.46-1.11,.29-.3,.69-.46,1.11-.46h15.36c.42,0,.82,.17,1.12,.47,.29,.3,.46,.7,.45,1.12l-.17,13.55c-.01,.86-.71,1.55-1.57,1.55Zm-13.47-3.13h11.93l.13-10.42h-12.19c.03,2.73,.09,7.73,.13,10.42Z"/><path d="M74.44,160.76s-.07,0-.1,0c-1.31-.08-1.92-.98-3.45-6.77-2.97-11.2-4.93-33.67-5.51-63.27,0-.42,.15-.83,.45-1.13,.29-.3,.7-.47,1.12-.47h15.02c.42,0,.82,.17,1.12,.47s.46,.71,.45,1.13c-.58,29.56-2.54,52.03-5.52,63.28-1.47,5.57-2.1,6.78-3.57,6.78Zm-5.89-68.52c.62,28.57,2.52,50.17,5.37,60.94,.2,.75,.38,1.39,.53,1.93,.16-.54,.33-1.18,.53-1.93,2.86-10.81,4.76-32.42,5.38-60.94h-11.82Z"/><path d="M106.62,166.08c-.68,0-1.28-.44-1.49-1.08l-9.24-28.28c-.05-.16-.08-.32-.08-.49V38.63c0-.86,.7-1.57,1.57-1.57h18.47c.87,0,1.57,.7,1.57,1.57v97.6c0,.16-.03,.33-.08,.49l-9.23,28.28c-.21,.64-.81,1.08-1.49,1.08Zm-7.67-30.1l7.67,23.48,7.66-23.48V40.2h-15.33v95.78Z"/><path d="M116.06,137.85c-.37,0-.74-.13-1.04-.39l-2.36-2.07-1.4,1.81c-.28,.36-.71,.58-1.17,.6-.46,.04-.9-.16-1.22-.5l-2.32-2.49-1.55,2.3c-.29,.43-.78,.69-1.3,.69h0c-.52,0-1.01-.26-1.3-.69l-1.55-2.3-2.33,2.5c-.6,.63-1.58,.67-2.21,.08-.63-.59-.67-1.58-.08-2.21l3.68-3.94c.33-.35,.78-.53,1.27-.49,.48,.04,.91,.29,1.17,.69l1.35,2.01,1.36-2.01c.27-.4,.7-.65,1.18-.68,.48-.04,.95,.14,1.27,.49l2.41,2.59,1.29-1.67c.27-.34,.66-.56,1.09-.6,.43-.04,.86,.1,1.18,.38l3.61,3.17c.65,.57,.71,1.56,.14,2.21-.31,.35-.74,.53-1.18,.53Z"/><path d="M115.85,40.2h-18.47c-.87,0-1.57-.7-1.57-1.57v-7.14c0-4.8,3.9-8.7,8.7-8.7h4.21c4.79,0,8.69,3.9,8.69,8.7v7.14c0,.86-.7,1.57-1.57,1.57Zm-16.9-3.13h15.33v-5.57c0-3.07-2.49-5.57-5.56-5.57h-4.21c-3.07,0-5.57,2.5-5.57,5.57v5.57Z"/><path d="M38.39,63.75h-15.69c-.87,0-1.57-.7-1.57-1.57s.7-1.57,1.57-1.57h15.69c.87,0,1.57,.7,1.57,1.57s-.7,1.57-1.57,1.57Z"/><path d="M32.83,75.49h-10.13c-.87,0-1.57-.7-1.57-1.57s.7-1.57,1.57-1.57h10.13c.87,0,1.57,.7,1.57,1.57s-.7,1.57-1.57,1.57Z"/><path d="M38.39,87.23h-15.69c-.87,0-1.57-.7-1.57-1.57s.7-1.57,1.57-1.57h15.69c.87,0,1.57,.7,1.57,1.57s-.7,1.57-1.57,1.57Z"/><path d="M32.83,98.96h-10.13c-.87,0-1.57-.7-1.57-1.57s.7-1.57,1.57-1.57h10.13c.87,0,1.57,.7,1.57,1.57s-.7,1.57-1.57,1.57Z"/><path d="M38.39,110.7h-15.69c-.87,0-1.57-.7-1.57-1.57s.7-1.57,1.57-1.57h15.69c.87,0,1.57,.7,1.57,1.57s-.7,1.57-1.57,1.57Z"/><path d="M32.83,122.44h-10.13c-.87,0-1.57-.7-1.57-1.57s.7-1.57,1.57-1.57h10.13c.87,0,1.57,.7,1.57,1.57s-.7,1.57-1.57,1.57Z"/><path d="M38.39,134.16h-15.69c-.87,0-1.57-.7-1.57-1.57s.7-1.57,1.57-1.57h15.69c.87,0,1.57,.7,1.57,1.57s-.7,1.57-1.57,1.57Z"/><path d="M32.83,145.89h-10.13c-.87,0-1.57-.7-1.57-1.57s.7-1.57,1.57-1.57h10.13c.87,0,1.57,.7,1.57,1.57s-.7,1.57-1.57,1.57Z"/><path d="M38.39,157.63h-15.69c-.87,0-1.57-.7-1.57-1.57s.7-1.57,1.57-1.57h15.69c.87,0,1.57,.7,1.57,1.57s-.7,1.57-1.57,1.57Z"/><path d="M32.83,169.37h-10.13c-.87,0-1.57-.7-1.57-1.57s.7-1.57,1.57-1.57h10.13c.87,0,1.57,.7,1.57,1.57s-.7,1.57-1.57,1.57Z"/><path d="M38.39,181.11h-15.69c-.87,0-1.57-.7-1.57-1.57s.7-1.57,1.57-1.57h15.69c.87,0,1.57,.7,1.57,1.57s-.7,1.57-1.57,1.57Z"/><path d="M32.83,192.85h-10.13c-.87,0-1.57-.7-1.57-1.57s.7-1.57,1.57-1.57h10.13c.87,0,1.57,.7,1.57,1.57s-.7,1.57-1.57,1.57Z"/><path d="M50.66,210.12c-.87,0-1.57-.7-1.57-1.57v-15.7c0-.86,.7-1.57,1.57-1.57s1.57,.7,1.57,1.57v15.7c0,.86-.7,1.57-1.57,1.57Z"/><path d="M62.39,210.12c-.87,0-1.57-.7-1.57-1.57v-10.14c0-.86,.7-1.57,1.57-1.57s1.57,.7,1.57,1.57v10.14c0,.86-.7,1.57-1.57,1.57Z"/><path d="M74.13,210.12c-.87,0-1.57-.7-1.57-1.57v-15.7c0-.86,.7-1.57,1.57-1.57s1.57,.7,1.57,1.57v15.7c0,.86-.7,1.57-1.57,1.57Z"/><path d="M85.87,210.12c-.87,0-1.57-.7-1.57-1.57v-10.14c0-.86,.7-1.57,1.57-1.57s1.57,.7,1.57,1.57v10.14c0,.86-.7,1.57-1.57,1.57Z"/><path d="M97.6,210.12c-.87,0-1.57-.7-1.57-1.57v-15.7c0-.86,.7-1.57,1.57-1.57s1.57,.7,1.57,1.57v15.7c0,.86-.7,1.57-1.57,1.57Z"/><path d="M109.34,210.12c-.87,0-1.57-.7-1.57-1.57v-10.14c0-.86,.7-1.57,1.57-1.57s1.57,.7,1.57,1.57v10.14c0,.86-.7,1.57-1.57,1.57Z"/><path d="M121.08,210.12c-.87,0-1.57-.7-1.57-1.57v-15.7c0-.86,.7-1.57,1.57-1.57s1.57,.7,1.57,1.57v15.7c0,.86-.7,1.57-1.57,1.57Z"/><path d="M132.82,210.12c-.87,0-1.57-.7-1.57-1.57v-10.14c0-.86,.7-1.57,1.57-1.57s1.57,.7,1.57,1.57v10.14c0,.86-.7,1.57-1.57,1.57Z"/><path d="M144.56,210.12c-.87,0-1.57-.7-1.57-1.57v-15.7c0-.86,.7-1.57,1.57-1.57s1.57,.7,1.57,1.57v15.7c0,.86-.7,1.57-1.57,1.57Z"/><path d="M156.29,210.12c-.87,0-1.57-.7-1.57-1.57v-10.14c0-.86,.7-1.57,1.57-1.57s1.57,.7,1.57,1.57v10.14c0,.86-.7,1.57-1.57,1.57Z"/><path d="M168.02,210.12c-.87,0-1.57-.7-1.57-1.57v-15.7c0-.86,.7-1.57,1.57-1.57s1.57,.7,1.57,1.57v15.7c0,.86-.7,1.57-1.57,1.57Z"/><path d="M179.76,210.12c-.87,0-1.57-.7-1.57-1.57v-10.14c0-.86,.7-1.57,1.57-1.57s1.57,.7,1.57,1.57v10.14c0,.86-.7,1.57-1.57,1.57Z"/></g></g></g></svg>