<svg xmlns="http://www.w3.org/2000/svg" viewBox="0 0 1223.93 845"><defs><style>.cls-1{fill:#333;fill-rule:evenodd;}.cls-2{fill:#666;}</style></defs><g id="Layer_2" data-name="Layer 2"><g id="Layer_1-2" data-name="Layer 1"><path class="cls-1" d="M397.45,600.05c54.63,14.11,108-25.83,127.58-63.15,45.41-86.68,48.64-206.73,57.26-334.68V30.47c-40.79,22.62-86.58,55.4-137.14,75.83,1,50.4,8.37,96.82,8.37,151.48,0,123.87,3.71,319.42-60.66,312.79-56.05-5.74-62.34-87-67.46-146-11.11-129.29,23.77-272,14.25-378.07-64.69-3.8-139.46-.77-229.47-.29-21.86,25.41-70.63,33.08-86.55,73-21.18,52.92-64,411.45,70.45,567.06,60.63,70.18,171.62,141.14,332.15,127.53,58.43-4.94,119.3-25.93,157.06-49.78V734.72c-5.06,3.57-24.14,16.58-29.33,19.71-55.35,33.3-132.07,31.83-199.25,20.89-80.06-13-136.62-82.16-178.81-157.34-39.09-69.71-23.45-204.81-31.85-313.65-6.57-84.53,6.49-165,11.22-237.22,46.95-7.27,115.08,3.54,159.93-.54C340.46,219.27,228.63,556.48,397.45,600.05ZM497.81,493.31c5.91-14.76,17-24.72,24.71-37.75C527,465.88,516,492.39,497.81,493.31Zm16.63-59.72c-7.52-10.86,11.17-27.71,21.2-34C533.39,415.44,521.31,422.07,514.44,433.59Zm-23-25.2c2-24.53,27.68-57.79,49.53-75.58C540.67,373.24,507.84,383.06,491.45,408.39Zm-5.27-51.69c6-29.14,35.33-67.29,60.13-90.69C543.69,312.64,506,326.23,486.18,356.7Zm1.65-66.63c5.94-28,40.09-60.49,56.44-90.6C557.56,245.49,506.84,262.42,487.83,290.07Zm5.8-52c4-28.61,32.4-65.25,60.36-83.29C540.09,188.36,509.3,206.06,493.63,238Zm1.78-63c17.26-23.26,33.75-47.24,53.41-68.28C555.45,138.2,514.51,155.91,495.41,175.07ZM551.36,69.7c-10.9,23.27-44.9,55.9-71.68,76.23C494.94,112.37,519.18,87.34,551.36,69.7ZM481.29,438.3c.29,11.06-9.21,12.85-10.45,22.55C462,455.68,465.84,432.42,481.29,438.3Zm-354-77.92c-30.5,2.4-33.69,30.56-50.43,45.94,2.42-22.94,31.49-51.74,45.81-75.42C131.08,333.39,124.72,351.6,127.25,360.38Zm-6.16-199.73c-36.4,8.9-43.31,45.45-72.13,61.49,17.36-37.59,51-59.75,71.11-94.75C131.65,135.08,117.18,148.33,121.09,160.65Zm.27,129.6c-5.71,34.06-35.51,45.54-49.58,71.82C76.37,341.21,100,307.23,121.36,290.25ZM125.87,75.4c.88,15.12,1.65,30.28-2.45,40.78-35-4.28-49.29,39-79.87,50.56C60.43,126.41,94.35,102,125.87,75.4Zm-7.68,111.3c9.26,68.55-21.63,99.32-55.3,127.57,4.37-23.53,37.76-50.71,49.39-79.28-36.63-8.12-43.18,43.16-76.18,50.45C61.45,250.65,81.82,211.13,118.19,186.7Zm-85,243.2q-1-31.48-1.94-62.87c7.26-4,15.61-6.91,18-15.36,1.3,13.07-21.19,42.36,1.83,59.17C39.44,411.89,46.94,430.88,33.17,429.9ZM59.46,562.36C42,545,49.74,494.85,68.25,488,62.83,501.64,64.63,544,59.46,562.36Zm8-100.22C76,439,104.38,403.48,124.1,379c8.45,2.51,2.13,20.71,4.62,29.47C102.66,421,87.94,444.3,67.48,462.14Zm54.64-27.57c21.4,23.13-23.46,41.22-31.44,60.17C88.56,490.79,113.64,452.23,122.12,434.57ZM92.28,546.51c-3.72-7.69,20.56-49.56,38.82-60.42-3,15.55,2.36,18.21-2.66,33.38C105.68,510.79,104.17,535.13,92.28,546.51Zm5,44.25c-3.67-6.49,18.12-49.45,35.15-60.27q.44,14.79.91,29.58C115.62,564.88,111.34,582.37,97.33,590.76Zm23.43,40c-8-12.46,11.41-29.89,13.43-44.83C156.36,600.84,126.9,619.63,120.76,630.79Z"/><path class="cls-2" d="M857.29,33.38V20.11C857.29,9,847,0,834.36,0H605.21c-12.66,0-22.92,9-22.92,20.11V824.9c0,11.09,10.26,20.1,22.92,20.1H834.36a25,25,0,0,0,4.09-.32c10.71-1.69,18.84-9.91,18.84-19.78V811.62c204.19-11.91,366.64-181.91,366.64-389.12S1061.48,45.29,857.29,33.38ZM811.29,806h-183V41h183Zm46-541.9C935,275.25,994.87,342.27,994.87,423S935,570.73,857.29,581.9Zm0,502.14V628.11c103.05-11.44,183.46-99.06,183.46-205.11S960.34,229.32,857.29,217.88V79.76C1036.32,91.61,1178.36,241,1178.36,423S1036.32,754.39,857.29,766.24Z"/><rect class="cls-2" x="626.29" y="63" width="65" height="5"/><rect class="cls-2" x="626.29" y="76" width="33" height="5"/><rect class="cls-2" x="626.29" y="90" width="33" height="5"/><rect class="cls-2" x="626.29" y="103" width="33" height="5"/><rect class="cls-2" x="626.29" y="116" width="33" height="5"/><rect class="cls-2" x="626.29" y="129" width="33" height="5"/><rect class="cls-2" x="626.29" y="142" width="65" height="5"/><rect class="cls-2" x="626.29" y="156" width="33" height="5"/><rect class="cls-2" x="626.29" y="169" width="33" height="5"/><rect class="cls-2" x="626.29" y="182" width="33" height="5"/><rect class="cls-2" x="626.29" y="195" width="33" height="5"/><rect class="cls-2" x="626.29" y="208" width="33" height="5"/><rect class="cls-2" x="626.29" y="222" width="65" height="5"/><rect class="cls-2" x="626.29" y="235" width="33" height="5"/><rect class="cls-2" x="626.29" y="248" width="33" height="5"/><rect class="cls-2" x="626.29" y="261" width="33" height="5"/><rect class="cls-2" x="626.29" y="274" width="33" height="5"/><rect class="cls-2" x="626.29" y="288" width="33" height="5"/><rect class="cls-2" x="626.29" y="301" width="65" height="5"/><rect class="cls-2" x="626.29" y="314" width="33" height="5"/><rect class="cls-2" x="626.29" y="327" width="33" height="5"/><rect class="cls-2" x="626.29" y="340" width="33" height="5"/><rect class="cls-2" x="626.29" y="354" width="33" height="5"/><rect class="cls-2" x="626.29" y="367" width="33" height="5"/><rect class="cls-2" x="626.29" y="380" width="65" height="5"/><rect class="cls-2" x="626.29" y="393" width="33" height="5"/><rect class="cls-2" x="626.29" y="406" width="33" height="5"/><rect class="cls-2" x="626.29" y="420" width="33" height="5"/><rect class="cls-2" x="626.29" y="433" width="33" height="5"/><rect class="cls-2" x="626.29" y="447" width="33" height="5"/><rect class="cls-2" x="626.29" y="460" width="65" height="5"/><rect class="cls-2" x="626.29" y="473" width="33" height="5"/><rect class="cls-2" x="626.29" y="487" width="33" height="5"/><rect class="cls-2" x="626.29" y="500" width="33" height="5"/><rect class="cls-2" x="626.29" y="513" width="33" height="5"/><rect class="cls-2" x="626.29" y="526" width="33" height="5"/><rect class="cls-2" x="626.29" y="539" width="65" height="5"/><rect class="cls-2" x="626.29" y="553" width="33" height="5"/><rect class="cls-2" x="626.29" y="566" width="33" height="5"/><rect class="cls-2" x="626.29" y="579" width="33" height="5"/><rect class="cls-2" x="626.29" y="592" width="33" height="5"/><rect class="cls-2" x="626.29" y="605" width="33" height="5"/><rect class="cls-2" x="626.29" y="619" width="65" height="5"/><rect class="cls-2" x="626.29" y="632" width="33" height="5"/><rect class="cls-2" x="626.29" y="645" width="33" height="5"/><rect class="cls-2" x="626.29" y="658" width="33" height="5"/><rect class="cls-2" x="626.29" y="672" width="33" height="5"/><rect class="cls-2" x="626.29" y="685" width="33" height="5"/><rect class="cls-2" x="626.29" y="698" width="65" height="5"/><rect class="cls-2" x="626.29" y="711" width="33" height="5"/><rect class="cls-2" x="626.29" y="724" width="33" height="5"/><rect class="cls-2" x="626.29" y="738" width="33" height="5"/><rect class="cls-2" x="626.29" y="751" width="33" height="5"/><rect class="cls-2" x="626.29" y="765" width="33" height="5"/><rect class="cls-2" x="626.29" y="778" width="65" height="5"/></g></g></svg>