<?xml version="1.0" encoding="UTF-8"?><svg id="Layer_2" xmlns="http://www.w3.org/2000/svg" viewBox="0 0 232.28 232.28"><defs><style>.cls-1{fill:#fff;}</style></defs><g id="Layer_1-2"><g><rect class="cls-1" width="232.28" height="232.28"/><g><path d="M34.12,200.97c-.41,0-.8-.16-1.1-.46-.42-.42-.57-1.05-.37-1.61l17.03-49.23c.08-.22,.2-.42,.37-.59L164.47,34.65c.29-.29,.69-.46,1.1-.46h0c.41,0,.81,.17,1.1,.46l32.19,32.2c.61,.61,.61,1.6,0,2.21l-114.41,114.4c-.17,.17-.37,.29-.59,.37l-49.24,17.06c-.17,.06-.34,.09-.51,.09Zm18.39-49.95l-15.86,45.86,45.86-15.89,113.05-113.05-29.98-30L52.51,151.02Z"/><path d="M34.12,200.97c-.41,0-.8-.16-1.1-.46-.42-.42-.57-1.05-.37-1.61l4.85-14.01c.16-.45,.51-.81,.96-.96,.45-.15,.95-.1,1.35,.16,1.91,1.22,3.71,2.66,5.34,4.28,1.67,1.69,3.12,3.48,4.3,5.35,.25,.4,.31,.9,.15,1.35-.16,.45-.51,.8-.96,.96l-14.01,4.86c-.17,.06-.34,.09-.51,.09Zm5.66-13.13l-3.13,9.04,9.04-3.14c-.81-1.09-1.73-2.16-2.74-3.18-.99-.99-2.05-1.9-3.17-2.73Z"/><path d="M83.66,184.34c-.7,0-1.33-.47-1.51-1.18l-2.27-8.91-6.8-.5c-.72-.05-1.31-.59-1.43-1.31l-1.58-9.68h-7.91c-.86,0-1.56-.7-1.56-1.56v-7.94l-9.7-1.56c-.85-.14-1.43-.94-1.29-1.79,.14-.85,.94-1.43,1.79-1.29l11.01,1.77c.76,.12,1.31,.77,1.31,1.54v7.7h7.68c.76,0,1.42,.56,1.54,1.31l1.6,9.78,6.7,.49c.67,.05,1.23,.52,1.4,1.17l2.55,10c.21,.83-.29,1.68-1.13,1.9-.13,.03-.26,.05-.39,.05Z"/><path d="M60.94,153.23c-.4,0-.8-.15-1.1-.46-.61-.61-.61-1.6,0-2.21L170.11,40.29c.61-.61,1.6-.61,2.21,0,.61,.61,.61,1.6,0,2.21L62.04,152.78c-.3,.3-.7,.46-1.1,.46Z"/><path d="M70.25,163.64c-.4,0-.79-.15-1.1-.45-.61-.61-.62-1.59,0-2.21L179.47,49.67c.6-.61,1.59-.61,2.21,0,.61,.61,.62,1.59,0,2.21l-110.33,111.31c-.3,.31-.71,.46-1.11,.46Z"/><path d="M79.06,175.01c-.4,0-.8-.15-1.1-.46-.61-.61-.61-1.6,0-2.21L190.06,60.25c.61-.61,1.6-.61,2.21,0,.61,.61,.61,1.6,0,2.21l-112.11,112.1c-.3,.3-.7,.46-1.1,.46Z"/><path d="M197.76,69.51c-.4,0-.8-.15-1.1-.46l-32.19-32.2c-.61-.61-.61-1.6,0-2.21l8.34-8.35c2.52-2.51,5.88-3.9,9.46-3.9s6.94,1.38,9.45,3.9l15.5,15.49c5.21,5.22,5.21,13.71,0,18.93l-8.36,8.35c-.3,.3-.7,.46-1.1,.46Zm-29.98-33.76l29.98,30,7.26-7.24c4-4,4-10.51,0-14.51l-15.49-15.49c-1.93-1.92-4.5-2.98-7.25-2.98s-5.32,1.06-7.26,2.98l-7.24,7.24Z"/><path d="M166.54,203.36h-16.16c-.86,0-1.56-.7-1.56-1.56s.7-1.56,1.56-1.56h16.16c.86,0,1.56,.7,1.56,1.56s-.7,1.56-1.56,1.56Zm-29.18,0H22.7c-.86,0-1.56-.7-1.56-1.56s.7-1.56,1.56-1.56h114.66c.86,0,1.56,.7,1.56,1.56s-.7,1.56-1.56,1.56Z"/><path d="M143.86,209.87c-4.45,0-8.06-3.62-8.06-8.07s3.62-8.07,8.06-8.07,8.08,3.62,8.08,8.07-3.62,8.07-8.08,8.07Zm0-13.02c-2.73,0-4.94,2.22-4.94,4.95s2.21,4.95,4.94,4.95,4.95-2.22,4.95-4.95-2.22-4.95-4.95-4.95Z"/></g></g></g></svg>