<?xml version="1.0" encoding="UTF-8"?><svg id="Layer_2" xmlns="http://www.w3.org/2000/svg" viewBox="0 0 232.28 232.28"><defs><style>.cls-1{fill:#fff;}</style></defs><g id="Layer_1-2"><g><rect class="cls-1" width="232.28" height="232.28"/><g><path d="M187.77,199.32c-19.57,0-36.65-13.89-40.61-33.02-.21-1.01,.44-1.99,1.44-2.2,1.01-.2,1.99,.44,2.2,1.44,3.6,17.41,19.15,30.05,36.97,30.05,20.81,0,37.74-16.93,37.74-37.75s-16.93-37.72-37.74-37.72c-2.81,0-5.57,.3-8.2,.89-1.01,.23-1.99-.4-2.22-1.4-.22-1,.4-2,1.41-2.22,2.9-.65,5.93-.98,9.02-.98,22.86,0,41.45,18.59,41.45,41.44s-18.6,41.47-41.45,41.47Z"/><path d="M187.77,199.32c-8.98,0-16.44-13.67-18.14-33.23-.09-1.02,.67-1.92,1.69-2.01,.99-.11,1.92,.67,2.01,1.69,1.48,17.01,7.69,29.84,14.44,29.84,7.13,0,14.77-15.17,14.77-37.75s-7.64-37.72-14.77-37.72c-3.04,0-5.53,2.67-7.08,4.9-.58,.84-1.75,1.05-2.59,.47-.84-.59-1.05-1.74-.46-2.59,2.95-4.25,6.46-6.5,10.13-6.5,10.37,0,18.48,18.2,18.48,41.44s-8.12,41.47-18.48,41.47Z"/><path d="M179.16,167.79H4.91c-1.03,0-1.86-.83-1.86-1.86V34.81c0-1.03,.83-1.86,1.86-1.86H179.16c1.03,0,1.86,.83,1.86,1.86V165.93c0,1.03-.83,1.86-1.86,1.86Zm-172.39-3.72H177.3V36.67H6.77v127.4Z"/><path d="M65.38,130.81h-9.19c-1.03,0-1.86-.83-1.86-1.86v-31.8c0-1.03,.83-1.86,1.86-1.86h9.19c1.03,0,1.86,.83,1.86,1.86v31.8c0,1.03-.83,1.86-1.86,1.86Zm-7.34-3.72h5.48v-28.08h-5.48v28.08Z"/><path d="M81.1,130.81h-9.19c-1.03,0-1.86-.83-1.86-1.86v-38.2c0-1.03,.83-1.86,1.86-1.86h9.19c1.03,0,1.86,.83,1.86,1.86v38.2c0,1.03-.83,1.86-1.86,1.86Zm-7.34-3.72h5.48v-34.48h-5.48v34.48Z"/><path d="M96.81,130.81h-9.19c-1.03,0-1.86-.83-1.86-1.86v-29.14c0-1.03,.83-1.86,1.86-1.86h9.19c1.03,0,1.86,.83,1.86,1.86v29.14c0,1.03-.83,1.86-1.86,1.86Zm-7.34-3.72h5.48v-25.42h-5.48v25.42Z"/><path d="M112.53,130.81h-9.18c-1.03,0-1.86-.83-1.86-1.86v-12.68c0-1.03,.83-1.86,1.86-1.86h9.18c1.03,0,1.86,.83,1.86,1.86v12.68c0,1.03-.83,1.86-1.86,1.86Zm-7.32-3.72h5.47v-8.96h-5.47v8.96Z"/><path d="M128.25,130.81h-9.19c-1.03,0-1.86-.83-1.86-1.86v-28.88c0-1.03,.83-1.86,1.86-1.86h9.19c1.03,0,1.86,.83,1.86,1.86v28.88c0,1.03-.83,1.86-1.86,1.86Zm-7.33-3.72h5.48v-25.16h-5.48v25.16Z"/><path d="M141.72,138.91H42.24c-1.03,0-1.86-.83-1.86-1.86s.83-1.86,1.86-1.86h99.47c1.03,0,1.86,.83,1.86,1.86s-.83,1.86-1.86,1.86Z"/><path d="M179.16,66.13H4.91c-1.03,0-1.86-.83-1.86-1.86s.83-1.86,1.86-1.86H179.16c1.03,0,1.86,.83,1.86,1.86s-.83,1.86-1.86,1.86Z"/><path d="M22.52,56.02c-3.76,0-6.82-3.05-6.82-6.81s3.06-6.81,6.82-6.81,6.82,3.05,6.82,6.81-3.06,6.81-6.82,6.81Zm0-9.89c-1.71,0-3.1,1.38-3.1,3.09s1.39,3.09,3.1,3.09,3.1-1.38,3.1-3.09-1.39-3.09-3.1-3.09Z"/><path d="M44.01,56.02c-3.76,0-6.82-3.05-6.82-6.81s3.06-6.81,6.82-6.81,6.81,3.05,6.81,6.81-3.05,6.81-6.81,6.81Zm0-9.89c-1.71,0-3.1,1.38-3.1,3.09s1.39,3.09,3.1,3.09,3.09-1.38,3.09-3.09-1.39-3.09-3.09-3.09Z"/><path d="M179.16,51.07H82.37c-1.03,0-1.86-.83-1.86-1.86s.83-1.86,1.86-1.86h96.79c1.03,0,1.86,.83,1.86,1.86s-.83,1.86-1.86,1.86Z"/><path d="M187.77,199.32c-1.03,0-1.86-.83-1.86-1.86V118.27c0-1.03,.83-1.86,1.86-1.86s1.86,.83,1.86,1.86v79.19c0,1.03-.83,1.86-1.86,1.86Z"/><path d="M227.36,159.72h-48.2c-1.03,0-1.86-.83-1.86-1.86s.83-1.86,1.86-1.86h48.2c1.03,0,1.86,.83,1.86,1.86s-.83,1.86-1.86,1.86Z"/><path d="M187.12,142.28c-2.72,0-5.42-.1-8.1-.3-1.02-.08-1.79-.97-1.71-1.99,.08-1.02,.96-1.79,1.99-1.71,13.11,1.01,26.78-.54,40.62-4.56,.98-.29,2.02,.28,2.3,1.26,.29,.99-.28,2.02-1.27,2.3-11.45,3.33-22.8,5-33.84,5Z"/><path d="M155.09,179.22c-.79,0-1.53-.51-1.77-1.31-.31-.98,.24-2.02,1.22-2.33,21.54-6.72,43.27-6.73,66.42-.01,.99,.28,1.55,1.32,1.27,2.3-.28,.99-1.31,1.56-2.3,1.27-22.43-6.5-43.46-6.5-64.28-.01-.18,.06-.37,.09-.55,.09Z"/></g></g></g></svg>