<svg xmlns="http://www.w3.org/2000/svg" xmlns:xlink="http://www.w3.org/1999/xlink" width="34.548" height="34.548" viewBox="0 0 34.548 34.548"><defs><clipPath id="a"><rect width="34.548" height="34.548" fill="none"/></clipPath></defs><g transform="translate(-810 -4078)"><g transform="translate(810 4078)"><g transform="translate(0 0)" clip-path="url(#a)"><path d="M46.8,11.321a2.025,2.025,0,1,0,2.025,2.025A2.025,2.025,0,0,0,46.8,11.321" transform="translate(-20.377 -5.152)" fill="#fff"/><path d="M24.856,16.088A8.508,8.508,0,1,0,33.365,24.6a8.518,8.518,0,0,0-8.508-8.508m0,13.958a5.45,5.45,0,1,1,5.45-5.45,5.456,5.456,0,0,1-5.45,5.45" transform="translate(-7.44 -7.322)" fill="#fff"/><path d="M24.17,34.548H10.377A10.389,10.389,0,0,1,0,24.171V10.377A10.389,10.389,0,0,1,10.377,0H24.17A10.389,10.389,0,0,1,34.548,10.377V24.171A10.389,10.389,0,0,1,24.17,34.548M10.377,3.25A7.135,7.135,0,0,0,3.25,10.377V24.171A7.135,7.135,0,0,0,10.377,31.3H24.17A7.135,7.135,0,0,0,31.3,24.171V10.377A7.135,7.135,0,0,0,24.17,3.25Z" transform="translate(0 0)" fill="#fff"/></g></g></g></svg>