<?xml version="1.0" encoding="UTF-8"?><svg id="Layer_2" xmlns="http://www.w3.org/2000/svg" viewBox="0 0 232.28 232.28"><defs><style>.cls-1{fill:#fff;}</style></defs><g id="Layer_1-2"><g><rect class="cls-1" width="232.28" height="232.28"/><g><path d="M205.33,199.93h-25.38c-.98,0-1.77-.79-1.77-1.77s.79-1.77,1.77-1.77h23.61V72.65H54.1v22.24c0,.98-.79,1.77-1.77,1.77s-1.77-.79-1.77-1.77v-24.01c0-.98,.79-1.77,1.77-1.77H205.33c.98,0,1.77,.79,1.77,1.77v127.28c0,.98-.79,1.77-1.77,1.77Z"/><path d="M179.95,223.97H26.94c-.98,0-1.77-.79-1.77-1.77V94.89c0-.98,.79-1.77,1.77-1.77H179.95c.98,0,1.77,.79,1.77,1.77v127.3c0,.98-.79,1.77-1.77,1.77Zm-151.24-3.54H178.18V96.66H28.71v123.76Z"/><path d="M179.95,179.95c-.37,0-.74-.11-1.06-.35l-36.14-26.94-28.07,22.98c-.76,.62-1.87,.51-2.49-.25-.62-.76-.51-1.87,.25-2.49l29.14-23.86c.63-.51,1.53-.53,2.18-.05l37.25,27.76c.78,.59,.95,1.69,.36,2.48-.35,.47-.88,.71-1.42,.71Z"/><path d="M26.94,200.21c-.51,0-1.01-.22-1.37-.64-.62-.75-.52-1.87,.24-2.49l57.21-47.34c.64-.53,1.57-.54,2.23-.03l49.42,38.91c.77,.6,.9,1.72,.3,2.49-.61,.77-1.72,.9-2.49,.3l-48.29-38.03-56.11,46.43c-.33,.27-.73,.41-1.13,.41Z"/><path d="M120.02,143.7c-7.32,0-13.28-5.95-13.28-13.27s5.96-13.27,13.28-13.27,13.27,5.95,13.27,13.27-5.95,13.27-13.27,13.27Zm0-23c-5.37,0-9.74,4.36-9.74,9.73s4.37,9.73,9.74,9.73,9.73-4.36,9.73-9.73-4.36-9.73-9.73-9.73Z"/><path d="M183.33,72.63c-.45,0-.91-.17-1.25-.52l-48.78-48.8c-.69-.69-.69-1.81,0-2.51s1.81-.69,2.5,0l48.78,48.8c.69,.69,.69,1.81,0,2.51-.35,.35-.8,.52-1.25,.52Zm-107.49,0c-.45,0-.91-.17-1.25-.52-.69-.69-.69-1.81,0-2.51L123.37,20.81c.69-.69,1.81-.69,2.5,0s.69,1.81,0,2.51l-48.78,48.8c-.35,.35-.8,.52-1.25,.52Z"/><path d="M129.59,25.88c-4.85,0-8.79-3.94-8.79-8.78s3.94-8.78,8.79-8.78,8.79,3.94,8.79,8.78-3.95,8.78-8.79,8.78Zm0-14.02c-2.89,0-5.25,2.35-5.25,5.24s2.36,5.24,5.25,5.24,5.25-2.35,5.25-5.24-2.36-5.24-5.25-5.24Z"/></g></g></g></svg>